<?xml version="1.0" standalone="no"?>
<!DOCTYPE svg PUBLIC "-//W3C//DTD SVG 20010904//EN"
 "http://www.w3.org/TR/2001/REC-SVG-20010904/DTD/svg10.dtd">
<svg version="1.0" xmlns="http://www.w3.org/2000/svg"
 width="1900.000000pt" height="270.000000pt" viewBox="0 0 1900.000000 270.000000"
 preserveAspectRatio="xMidYMid meet">

<g transform="translate(0.000000,270.000000) scale(0.100000,-0.100000)"
fill="#000000" stroke="none">
<path d="M1645 2595 c-341 -56 -628 -104 -638 -106 -19 -4 -31 -29 -179 -369
-191 -439 -380 -869 -403 -917 -14 -29 -23 -53 -20 -53 2 0 228 22 502 49 274
27 651 64 837 83 187 18 344 38 350 44 6 6 26 123 44 260 60 446 142 1048 147
1082 4 23 2 32 -7 31 -7 0 -292 -47 -633 -104z m-109 -602 c-3 -10 -30 -136
-60 -281 -29 -145 -56 -265 -58 -268 -6 -5 -239 -36 -243 -32 -1 2 42 127 95
278 l98 275 73 22 c93 27 102 28 95 6z"/>
<path d="M5341 2620 c-453 -32 -827 -62 -831 -67 -11 -12 -232 -714 -226 -720
2 -2 114 7 248 21 282 30 268 29 268 16 0 -6 -47 -142 -105 -302 -58 -160
-104 -292 -102 -293 3 -4 710 74 714 78 2 2 37 123 79 268 42 145 80 271 84
279 7 12 67 20 276 40 l268 25 27 90 c66 221 181 597 186 611 7 18 90 22 -886
-46z"/>
<path d="M3635 2590 c-451 -32 -831 -60 -844 -61 -18 -3 -28 -14 -37 -44 -18
-58 -284 -893 -362 -1137 -36 -114 -64 -209 -61 -211 3 -3 818 65 1269 105
l34 3 48 205 c26 112 46 205 44 207 -1 2 -130 -10 -286 -27 -156 -17 -284 -29
-286 -27 -3 3 61 215 67 221 2 2 238 28 524 56 286 29 523 55 526 59 4 3 53
159 109 346 57 187 105 346 107 353 3 7 -2 12 -13 11 -11 -1 -388 -27 -839
-59z"/>
<path d="M13330 2345 l0 -225 225 0 225 0 -2 223 -3 222 -222 3 -223 2 0 -225z"/>
<path d="M6714 1896 l-114 -115 0 -338 0 -338 113 -113 112 -112 448 0 447 0
0 -110 0 -110 -335 0 -335 0 0 55 0 55 -225 0 -225 0 0 -168 0 -167 113 -113
112 -112 560 0 560 0 113 113 112 112 0 335 0 335 -113 113 -112 112 -448 0
-448 0 3 113 3 112 332 3 332 2 3 -57 3 -58 223 -3 222 -2 0 173 0 173 -113
112 -114 112 -557 0 -558 0 -114 -114z"/>
<path d="M8453 1898 l-113 -112 0 -676 0 -675 113 -113 112 -112 673 0 672 0
0 225 0 225 -560 0 -560 0 0 110 0 110 560 0 560 0 0 453 0 453 -113 112 -114
112 -558 0 -558 0 -114 -112z m1007 -453 l0 -115 -335 0 -335 0 0 108 c0 60 3
112 7 115 3 4 154 7 335 7 l328 0 0 -115z"/>
<path d="M10080 1110 l0 -900 225 0 225 0 2 673 3 672 220 0 220 0 3 -113 3
-112 222 2 222 3 3 220 2 219 -117 118 -118 118 -219 0 -219 0 -113 -112 -113
-111 -3 109 -3 109 -222 3 -223 2 0 -900z"/>
<path d="M11590 1333 l0 -678 222 -222 223 -223 335 0 335 1 228 223 227 224
-2 673 -3 674 -222 3 -223 2 0 -562 0 -563 -113 -113 -112 -112 -110 0 -110 0
-113 113 -112 112 -2 560 -3 560 -222 3 -223 2 0 -677z"/>
<path d="M13330 1110 l0 -900 225 0 225 0 -2 898 -3 897 -222 3 -223 2 0 -900z"/>
<path d="M14062 1897 l-112 -112 0 -680 0 -680 108 -108 107 -107 565 0 565 0
113 113 112 112 0 223 0 222 -225 0 -225 0 0 -110 0 -110 -337 2 -338 3 0 445
0 445 335 0 335 0 3 -112 3 -113 224 0 225 0 0 222 0 223 -117 117 -118 118
-555 0 -555 0 -113 -113z"/>
<path d="M15802 1897 l-112 -112 0 -680 0 -680 108 -108 107 -107 678 0 677 0
-2 223 -3 222 -560 5 -560 5 -3 107 -3 108 563 2 563 3 3 445 2 444 -117 118
-118 118 -555 0 -555 0 -113 -113z m1006 -455 l3 -112 -338 2 -338 3 -3 99
c-1 55 0 106 2 113 5 11 68 13 338 11 l333 -3 3 -113z"/>
<path d="M17537 1892 l-117 -117 0 -330 0 -330 118 -118 117 -117 448 0 447 0
0 -110 0 -110 -340 0 -340 0 0 55 0 55 -225 0 -225 0 0 -167 0 -166 112 -114
112 -113 566 0 566 0 112 113 112 114 0 334 0 334 -113 113 -112 112 -453 0
-453 0 3 113 3 112 335 0 335 0 3 -58 3 -57 222 2 222 3 3 165 3 164 -118 118
-118 118 -555 0 -555 0 -118 -118z"/>
<path d="M4985 1199 c-187 -21 -343 -38 -347 -38 -5 -1 -8 -10 -8 -21 0 -19 6
-19 278 -14 152 2 305 7 339 10 l63 6 20 45 c24 54 24 53 8 52 -7 -1 -166 -19
-353 -40z"/>
<path d="M1101 996 l-775 -21 -34 -75 c-18 -41 -73 -167 -122 -280 -48 -113
-106 -245 -129 -294 -23 -49 -40 -90 -39 -91 5 -3 729 93 732 96 1 2 36 83 76
180 l74 176 195 41 c108 22 197 40 198 39 0 -1 -39 -173 -87 -382 -49 -209
-87 -381 -85 -383 3 -4 826 119 833 124 4 2 122 851 122 877 0 21 77 21 -959
-7z"/>
<path d="M4800 1008 c-168 -5 -308 -12 -311 -16 -12 -14 -281 -763 -276 -768
2 -3 180 19 393 48 l389 54 17 49 c25 76 188 624 188 635 0 6 -21 9 -47 8 -27
0 -185 -5 -353 -10z"/>
<path d="M2476 890 l-219 -5 -124 -370 c-68 -203 -122 -372 -121 -375 2 -4
172 18 378 46 206 29 382 53 391 53 15 1 33 55 200 604 l17 57 -151 -2 c-84
-1 -251 -5 -371 -8z"/>
</g>
</svg>
