<?xml version="1.0" standalone="no"?>
<!DOCTYPE svg PUBLIC "-//W3C//DTD SVG 20010904//EN"
 "http://www.w3.org/TR/2001/REC-SVG-20010904/DTD/svg10.dtd">
<svg version="1.0" xmlns="http://www.w3.org/2000/svg"
 width="1810.000000pt" height="302.000000pt" viewBox="0 0 1810.000000 302.000000"
 preserveAspectRatio="xMidYMid meet">

<g transform="translate(0.000000,302.000000) scale(0.100000,-0.100000)"
fill="#000000" stroke="none">
<path d="M2560 1905 l0 -1115 -705 0 -705 0 2 -227 3 -228 930 -2 c511 -2 933
1 937 5 4 4 4 609 1 1345 l-6 1337 -229 0 -228 0 0 -1115z"/>
<path d="M4550 1510 l0 -1510 980 0 980 0 0 375 0 375 -605 0 -605 0 0 190 0
190 605 0 605 0 0 380 0 380 -605 0 -605 0 2 188 3 187 603 3 602 2 0 375 0
375 -980 0 -980 0 0 -1510z"/>
<path d="M6990 1510 l0 -1510 380 0 380 0 0 1135 0 1135 498 -2 497 -3 0
-1133 0 -1132 380 0 380 0 -5 1212 -5 1213 -27 80 c-82 241 -291 439 -529 500
-45 12 -129 15 -405 15 -192 0 -369 -5 -394 -10 -113 -25 -237 -92 -332 -179
l-58 -53 0 121 0 121 -380 0 -380 0 0 -1510z"/>
<path d="M9690 2645 l0 -375 385 0 385 0 0 -1135 0 -1135 380 0 380 0 0 1135
0 1135 385 0 385 0 0 375 0 375 -1150 0 -1150 0 0 -375z"/>
<path d="M12420 2645 l0 -375 985 0 985 0 0 375 0 375 -985 0 -985 0 0 -375z"/>
<path d="M15040 1510 l0 -1510 380 0 380 0 0 370 0 370 363 0 c397 0 431 -4
587 -66 140 -56 304 -189 391 -316 52 -75 114 -206 140 -290 l21 -68 394 0
c369 0 394 1 394 18 0 35 -83 261 -135 370 -61 127 -151 270 -242 382 -92 114
-267 277 -381 356 -2 1 19 31 47 68 163 215 231 420 231 694 0 83 -6 172 -15
219 -74 389 -372 734 -745 862 -145 50 -157 51 -1011 51 l-799 0 0 -1510z
m1552 740 c131 -40 238 -168 258 -307 23 -172 -62 -331 -220 -407 l-65 -31
-382 -3 -383 -3 0 385 0 386 364 0 c334 0 369 -2 428 -20z"/>
<path d="M12420 1510 l0 -380 985 0 985 0 0 380 0 380 -985 0 -985 0 0 -380z"/>
<path d="M962 1111 c-7 -4 -226 -61 -487 -127 l-475 -119 0 -301 0 -302 490
-122 c270 -67 490 -126 490 -131 0 -5 5 -9 10 -9 7 0 9 71 8 208 l-3 207 -283
71 c-155 39 -284 73 -287 76 -6 5 91 31 383 103 l192 48 0 203 c0 209 -2 218
-38 195z"/>
<path d="M12420 375 l0 -375 985 0 985 0 0 375 0 375 -985 0 -985 0 0 -375z"/>
</g>
</svg>
